<svg width="20" height="20" viewBox="0 0 20 20" fill="none" xmlns="http://www.w3.org/2000/svg">
<g id="access_time_24px">
<path id="icon/device/access_time_24px" fill-rule="evenodd" clip-rule="evenodd" d="M9.99175 1.66675C5.39175 1.66675 1.66675 5.40008 1.66675 10.0001C1.66675 14.6001 5.39175 18.3334 9.99175 18.3334C14.6001 18.3334 18.3334 14.6001 18.3334 10.0001C18.3334 5.40008 14.6001 1.66675 9.99175 1.66675ZM10.0001 16.6667C6.31675 16.6667 3.33341 13.6834 3.33341 10.0001C3.33341 6.31675 6.31675 3.33341 10.0001 3.33341C13.6834 3.33341 16.6667 6.31675 16.6667 10.0001C16.6667 13.6834 13.6834 16.6667 10.0001 16.6667ZM9.76675 5.83342H9.81675C10.1501 5.83342 10.4167 6.10008 10.4167 6.43341V10.2167L13.6417 12.1334C13.9334 12.3001 14.0251 12.6751 13.8501 12.9584C13.6834 13.2417 13.3167 13.3251 13.0334 13.1584L9.57508 11.0834C9.31675 10.9334 9.16675 10.6584 9.16675 10.3667V6.43341C9.16675 6.10008 9.43342 5.83342 9.76675 5.83342Z" fill="black"/>
</g>
</svg>
