<svg width="20" height="20" viewBox="0 0 20 20" fill="none" xmlns="http://www.w3.org/2000/svg">
<g id="room_service_24px">
<path id="icon/places/room_service_24px" fill-rule="evenodd" clip-rule="evenodd" d="M11.6667 5.83341C11.6667 6.06675 11.6167 6.29175 11.5334 6.49175C14.7917 7.16675 17.2751 9.94175 17.5001 13.3334H2.50008C2.72508 9.94175 5.20841 7.16675 8.46675 6.49175C8.38341 6.29175 8.33341 6.06675 8.33341 5.83341C8.33341 4.91675 9.08341 4.16675 10.0001 4.16675C10.9167 4.16675 11.6667 4.91675 11.6667 5.83341ZM17.5001 14.1667H2.50008C2.04175 14.1667 1.66675 14.5417 1.66675 15.0001C1.66675 15.4584 2.04175 15.8334 2.50008 15.8334H17.5001C17.9584 15.8334 18.3334 15.4584 18.3334 15.0001C18.3334 14.5417 17.9584 14.1667 17.5001 14.1667Z" fill="black"/>
</g>
</svg>
