<svg width="20" height="20" viewBox="0 0 20 20" fill="none" xmlns="http://www.w3.org/2000/svg">
<g id="star_half_24px">
<path id="icon/toggle/star_half_24px" fill-rule="evenodd" clip-rule="evenodd" d="M12.3404 7.39549L16.3737 7.74549C17.1071 7.80382 17.3987 8.72049 16.8404 9.20382L13.7821 11.8538L14.6987 15.7955C14.8654 16.5122 14.0904 17.0788 13.4571 16.6955L9.99872 14.6038L6.54038 16.6872C5.90705 17.0705 5.13205 16.5038 5.29872 15.7872L6.21538 11.8538L3.15705 9.20382C2.59872 8.72049 2.89872 7.80382 3.63205 7.74549L7.65705 7.40382L9.23205 3.68716C9.51538 3.01216 10.4821 3.01216 10.7654 3.68716L12.3404 7.39549ZM9.99872 5.29549V13.0455L13.1404 14.9455L12.3071 11.3788L15.0737 8.97883L11.4237 8.66216L9.99872 5.29549Z" fill="black"/>
</g>
</svg>
